<svg width="90" height="60" viewBox="0 0 90 60" fill="none" xmlns="http://www.w3.org/2000/svg">
<path d="M0.391184 59.8454H85.5587C85.9859 59.8454 86.103 59.2576 85.7082 59.0939L25.4856 34.1491C25.3396 34.0887 25.1717 34.1219 25.0602 34.2337L0.115313 59.1786C-0.130926 59.4248 0.0433459 59.8454 0.391184 59.8454Z" fill="#3CB5A2"/>
<path d="M29.7136 1.26L22.0069 15.6699C21.9765 15.7267 21.93 15.7733 21.8728 15.8036L7.54229 23.4335C7.29958 23.5626 7.31686 23.9157 7.57051 24.0208L45.6486 39.7932C45.9163 39.9039 46.1844 39.6358 46.0733 39.3684L30.301 1.28892C30.1959 1.03528 29.8431 1.01799 29.7136 1.26ZM10.3606 23.2969C12.7105 22.0414 21.1553 17.528 22.6023 16.7282C22.729 16.658 22.8867 16.6802 22.9893 16.7825L42.9738 36.7035C43.2261 36.9551 42.9488 37.3706 42.62 37.2341L10.3899 23.884C10.1356 23.7792 10.1183 23.4264 10.3606 23.2969Z" fill="white"/>
<path d="M63.7606 0.169208L48.1216 4.90912C48.0599 4.92782 47.9939 4.92782 47.9325 4.90877L32.4043 0.170619C32.1415 0.0905389 31.9037 0.3523 32.0089 0.605946L47.7812 38.684C47.8919 38.9518 48.2712 38.9518 48.382 38.684L64.1553 0.604888C64.2605 0.351241 64.0234 0.0894803 63.7606 0.169208ZM34.4931 2.06715C37.0423 2.84114 46.2053 5.62103 47.7939 6.07858C47.9329 6.1188 48.0288 6.2458 48.0292 6.39043L48.074 34.6077C48.0747 34.9636 47.5847 35.0617 47.4485 34.7326L34.0984 2.50248C33.9932 2.24883 34.2303 1.98742 34.4931 2.06715Z" fill="#3CB5A2"/>
<path d="M88.7034 23.3527L74.2935 15.6459C74.2367 15.6156 74.1902 15.569 74.1598 15.5118L66.5296 1.18133C66.4005 0.938616 66.0474 0.955902 65.9422 1.20955L50.1699 39.288C50.0591 39.5557 50.3273 39.8238 50.5947 39.7127L88.6741 23.9397C88.9281 23.8346 88.9454 23.4821 88.7034 23.3527ZM66.6661 3.99931C67.9217 6.34916 72.4351 14.7939 73.2348 16.241C73.305 16.3677 73.2828 16.5254 73.1805 16.628L53.2595 36.6125C53.008 36.8647 52.5924 36.5875 52.729 36.2587L66.0791 4.02859C66.1842 3.77459 66.5367 3.75695 66.6661 3.99931Z" fill="#3CB5A2"/>
<path d="M89.714 57.4796L84.9741 41.8407C84.9554 41.7789 84.9554 41.713 84.9741 41.6516L89.7123 26.1234C89.7923 25.8606 89.5306 25.6228 89.2769 25.7279L51.1989 41.5002C50.9311 41.611 50.9311 41.9902 51.1989 42.101L89.2783 57.874C89.532 57.9795 89.7938 57.7425 89.714 57.4796ZM87.8164 28.2125C87.0424 30.7617 84.2626 39.9247 83.805 41.5133C83.7648 41.6523 83.6378 41.7482 83.4931 41.7486L55.2759 41.7934C54.92 41.7941 54.8219 41.3041 55.151 41.1679L87.3811 27.8178C87.6344 27.7126 87.8962 27.9497 87.8164 28.2125Z" fill="white"/>
</svg>
